<mxfile host="app.diagrams.net" modified="2024-01-13T16:31:10.276Z" agent="Mozilla/5.0 (Macintosh; Intel Mac OS X 10_15_7) AppleWebKit/537.36 (KHTML, like Gecko) Chrome/117.0.0.0 Safari/537.36" etag="EY8vnyvf33at3N_6VsqW" version="22.1.18" type="github">
  <diagram name="Страница — 1" id="fSWy1ijENZ-bCtmKOP5C">
    <mxGraphModel dx="954" dy="483" grid="1" gridSize="10" guides="1" tooltips="1" connect="1" arrows="1" fold="1" page="1" pageScale="1" pageWidth="827" pageHeight="1169" math="0" shadow="0">
      <root>
        <mxCell id="0" />
        <mxCell id="1" parent="0" />
        <mxCell id="7bCH_6VPNtAceHTh1374-1" value="Положительные стороны" style="rounded=1;whiteSpace=wrap;html=1;fillColor=#008a00;fontColor=#ffffff;strokeColor=#005700;" parent="1" vertex="1">
          <mxGeometry x="360" y="210" width="210" height="80" as="geometry" />
        </mxCell>
        <mxCell id="7bCH_6VPNtAceHTh1374-2" value="Внутренние факторы" style="rounded=1;whiteSpace=wrap;html=1;fillColor=#d0cee2;strokeColor=#56517e;" parent="1" vertex="1">
          <mxGeometry x="220" y="310" width="120" height="60" as="geometry" />
        </mxCell>
        <mxCell id="7bCH_6VPNtAceHTh1374-3" value="Внешние факторы" style="rounded=1;whiteSpace=wrap;html=1;fillColor=#b0e3e6;strokeColor=#0e8088;" parent="1" vertex="1">
          <mxGeometry x="220" y="550" width="120" height="60" as="geometry" />
        </mxCell>
        <mxCell id="7bCH_6VPNtAceHTh1374-4" value="Отрицательные стороны" style="rounded=1;whiteSpace=wrap;html=1;fillColor=#fad9d5;strokeColor=#ae4132;" parent="1" vertex="1">
          <mxGeometry x="630" y="210" width="220" height="80" as="geometry" />
        </mxCell>
        <mxCell id="7bCH_6VPNtAceHTh1374-5" value="&lt;span style=&quot;orphans: 2; text-align: left; text-indent: 0px; widows: 2; text-decoration-thickness: initial; text-decoration-style: initial; text-decoration-color: initial; float: none; display: inline !important;&quot;&gt;&lt;font face=&quot;Inter, -apple-system, system-ui, Segoe UI, Roboto, Helvetica, Arial, sans-serif, Apple Color Emoji, Segoe UI Emoji, Segoe UI Symbol&quot; color=&quot;#f8f8f8&quot;&gt;-Программа поможет предотвратить установку нежелательных программ или компонентов для пользователей, которые плохо разбираются в безопастности.&lt;br&gt;&lt;/font&gt;&lt;br&gt;&lt;font face=&quot;Inter, -apple-system, system-ui, Segoe UI, Roboto, Helvetica, Arial, sans-serif, Apple Color Emoji, Segoe UI Emoji, Segoe UI Symbol&quot; color=&quot;#f8f8f8&quot;&gt;-&amp;nbsp;Автоматизированный мониторинг процесса установки облегчит пользовательскую работу и уменьшит вероятность пропуска нежелательных компонентов.&lt;/font&gt;&lt;br&gt;&lt;br&gt;&lt;font face=&quot;Inter, -apple-system, system-ui, Segoe UI, Roboto, Helvetica, Arial, sans-serif, Apple Color Emoji, Segoe UI Emoji, Segoe UI Symbol&quot; color=&quot;#f8f8f8&quot;&gt;-Простота использования: Если программа разработана с учетом простоты использования, то пользователи смогут легко освоить ее и получать необходимые оповещения.&lt;/font&gt;&lt;br&gt;&lt;/span&gt;" style="rounded=1;whiteSpace=wrap;html=1;fontSize=11;verticalAlign=top;fillColor=#6d8764;strokeColor=#3A5431;fontColor=#ffffff;" parent="1" vertex="1">
          <mxGeometry x="361" y="300" width="249" height="230" as="geometry" />
        </mxCell>
        <mxCell id="7bCH_6VPNtAceHTh1374-6" value="-Расширенный анализ: Программа может предоставить дополнительные функции, такие как проверка цифровых подписей или просмотр подробных сведений о программе перед ее установкой.&lt;br&gt;&lt;br&gt;-Интеграция со сторонними системами: Система мониторинга процесса установки может быть интегрирована с другими средствами безопасности, такими как антивирусные программы или брандмауэры, для создания более полной системы защиты от нежелательной установки программ.&lt;br&gt;" style="rounded=1;whiteSpace=wrap;html=1;fillColor=#6d8764;fontColor=#ffffff;strokeColor=#3A5431;fontSize=11;verticalAlign=top;align=center;" parent="1" vertex="1">
          <mxGeometry x="360" y="540" width="250" height="230" as="geometry" />
        </mxCell>
        <mxCell id="7bCH_6VPNtAceHTh1374-7" value="-Обход программы: Злоумышленники могут попытаться обойти программу или настроить установку компонентов таким образом, чтобы не попасть под ее анализ. Это может создавать угрозу для безопасности системы.&lt;br&gt;&lt;br&gt;-Возможны ошибки или недочеты в алгоритмах анализа, которые позволят нежелательным компонентам проникнуть в систему или приведут к нежелательным ложным срабатываниям, что может нарушить работу приложений и создать неудобства для пользователей.&lt;br&gt;&lt;br&gt;-Отсутствие поддержки: При разработке собственной программы может возникнуть проблема отсутствия поддержки, что может затруднить обновление и поддержание программы в актуальном состоянии с учетом изменений в операционной системе или требований безопасности." style="rounded=1;whiteSpace=wrap;html=1;fillColor=#f0a30a;fontColor=#000000;strokeColor=#BD7000;fontSize=11;verticalAlign=top;" parent="1" vertex="1">
          <mxGeometry x="630" y="540" width="330" height="230" as="geometry" />
        </mxCell>
        <mxCell id="7bCH_6VPNtAceHTh1374-8" value="&lt;font style=&quot;&quot;&gt;-Сложность анализа: Мониторинг и анализ событий, связанных с установкой программ, могут быть сложными и требовать глубокого понимания системы. Разработка такой программы может потребовать значительных усилий и ресурсов.&lt;br&gt;&lt;/font&gt;-Ложные срабатывания: В процессе анализа могут возникать ложные срабатывания, когда программа неправильно идентифицирует нежелательные компоненты или дает ложные предупреждения пользователю. Важно уделить внимание точности и надежности алгоритмов анализа." style="rounded=1;whiteSpace=wrap;html=1;fillColor=#f0a30a;fontColor=#000000;strokeColor=#BD7000;verticalAlign=top;" parent="1" vertex="1">
          <mxGeometry x="630" y="300" width="330" height="230" as="geometry" />
        </mxCell>
        <mxCell id="7bCH_6VPNtAceHTh1374-9" value="" style="endArrow=none;html=1;rounded=0;" parent="1" edge="1">
          <mxGeometry width="50" height="50" relative="1" as="geometry">
            <mxPoint x="220" y="300" as="sourcePoint" />
            <mxPoint x="830" y="300" as="targetPoint" />
          </mxGeometry>
        </mxCell>
        <mxCell id="7bCH_6VPNtAceHTh1374-10" value="" style="endArrow=none;html=1;rounded=0;" parent="1" edge="1">
          <mxGeometry width="50" height="50" relative="1" as="geometry">
            <mxPoint x="350" y="740" as="sourcePoint" />
            <mxPoint x="350" y="210" as="targetPoint" />
          </mxGeometry>
        </mxCell>
        <mxCell id="7bCH_6VPNtAceHTh1374-13" value="S" style="text;html=1;strokeColor=none;fillColor=none;align=center;verticalAlign=middle;whiteSpace=wrap;rounded=0;fontStyle=1;fontSize=17;" parent="1" vertex="1">
          <mxGeometry x="550" y="500" width="60" height="30" as="geometry" />
        </mxCell>
        <mxCell id="7bCH_6VPNtAceHTh1374-14" value="W" style="text;html=1;strokeColor=none;fillColor=none;align=center;verticalAlign=middle;whiteSpace=wrap;rounded=0;fontStyle=1;fontSize=17;" parent="1" vertex="1">
          <mxGeometry x="890" y="500" width="60" height="30" as="geometry" />
        </mxCell>
        <mxCell id="7bCH_6VPNtAceHTh1374-15" value="O" style="text;html=1;strokeColor=none;fillColor=none;align=center;verticalAlign=middle;whiteSpace=wrap;rounded=0;fontSize=17;fontStyle=1" parent="1" vertex="1">
          <mxGeometry x="540" y="740" width="60" height="30" as="geometry" />
        </mxCell>
        <mxCell id="7bCH_6VPNtAceHTh1374-16" value="T" style="text;html=1;strokeColor=none;fillColor=none;align=center;verticalAlign=middle;whiteSpace=wrap;rounded=0;fontSize=17;fontStyle=1" parent="1" vertex="1">
          <mxGeometry x="880" y="750" width="60" height="30" as="geometry" />
        </mxCell>
      </root>
    </mxGraphModel>
  </diagram>
</mxfile>
